<svg version="1.1" id="Capa_1" xmlns="http://www.w3.org/2000/svg" xmlns:xlink="http://www.w3.org/1999/xlink" x="0px" y="0px" viewBox="0 0 512 512" style="enable-background:new 0 0 512 512;" xml:space="preserve">
<g>
	<path style="fill:none;stroke:#000000;stroke-width:30;stroke-linecap:round;stroke-linejoin:round;stroke-miterlimit:10;" d="&#10;&#9;&#9;M316.85,347.464h38.562c8.681,0,17.006-3.448,23.144-9.586l60.169-60.169c13.331-13.331,34.945-13.331,48.276,0h0&#10;&#9;&#9;c13.331,13.331,13.331,34.945,0,48.276L350.544,461.963c-12.129,12.086-28.554,18.873-45.677,18.873H15v-133.37h80.904"/>
	<path style="fill:none;stroke:#000000;stroke-width:30;stroke-linecap:round;stroke-linejoin:round;stroke-miterlimit:10;" d="&#10;&#9;&#9;M179.948,393.65h104.96c18.853,0,34.137-15.283,34.137-34.136v0c0-18.853-15.283-34.137-34.137-34.137H147.886&#10;&#9;&#9;c-37.238,0-67.426,30.188-67.426,67.426v0"/>
	
		<circle style="fill:none;stroke:#000000;stroke-width:30;stroke-linecap:round;stroke-linejoin:round;stroke-miterlimit:10;" cx="256" cy="147.778" r="116.613"/>
	<g>
		
			<line style="fill:none;stroke:#000000;stroke-width:30;stroke-linecap:round;stroke-linejoin:round;stroke-miterlimit:10;" x1="256" y1="93.282" x2="256" y2="93.282"/>
		
			<line style="fill:none;stroke:#000000;stroke-width:30;stroke-linecap:round;stroke-linejoin:round;stroke-miterlimit:10;" x1="256" y1="142.824" x2="256" y2="202.273"/>
	</g>
</g>
<g>
</g>
<g>
</g>
<g>
</g>
<g>
</g>
<g>
</g>
<g>
</g>
<g>
</g>
<g>
</g>
<g>
</g>
<g>
</g>
<g>
</g>
<g>
</g>
<g>
</g>
<g>
</g>
<g>
</g>
</svg>