<?xml version="1.0" encoding="UTF-8" standalone="no"?>
<!-- Created with Inkscape (http://www.inkscape.org/) -->

<svg
   version="1.1"
   id="svg1863"
   xml:space="preserve"
   width="682.66669"
   height="682.66669"
   viewBox="0 0 682.66669 682.66669"
   xmlns="http://www.w3.org/2000/svg"
   xmlns:svg="http://www.w3.org/2000/svg"><defs
     id="defs1867"><clipPath
       clipPathUnits="userSpaceOnUse"
       id="clipPath1877"><path
         d="M 0,512 H 512 V 0 H 0 Z"
         id="path1875" /></clipPath></defs><g
     id="g1869"
     transform="matrix(1.3333333,0,0,-1.3333333,0,682.66667)"><g
       id="g1871"><g
         id="g1873"
         clip-path="url(#clipPath1877)"><g
           id="g1879"
           transform="translate(381.46,256)"><path
             d="m 0,0 c 0,-69.29 -56.171,-125.459 -125.46,-125.459 -69.289,0 -125.46,56.169 -125.46,125.459 0,69.29 56.171,125.459 125.46,125.459 C -56.171,125.459 0,69.29 0,0 Z"
             style="fill:none;stroke:#000000;stroke-width:30;stroke-linecap:round;stroke-linejoin:round;stroke-miterlimit:10;stroke-dasharray:none;stroke-opacity:1"
             id="path1881" /></g><g
           id="g1883"
           transform="translate(497,206.8496)"><path
             d="m 0,0 v 98.301 l -65.881,9.728 c -2.743,8.161 -6.048,16.064 -9.855,23.671 l 43.804,57.843 -69.665,69.353 -57.595,-44.113 c -7.379,3.652 -15.033,6.833 -22.93,9.487 l -9.728,65.88 h -98.3 l -9.728,-65.88 c -8.162,-2.744 -16.064,-6.048 -23.672,-9.855 l -57.325,43.286 -69.354,-69.665 43.596,-57.078 c -3.651,-7.379 -6.832,-15.032 -9.486,-22.929 L -482,98.301 V 0 l 65.881,-9.728 c 2.743,-8.162 6.048,-16.064 9.855,-23.671 l -43.08,-57.119 69.665,-69.354 56.871,43.39 c 7.379,-3.652 15.033,-6.833 22.93,-9.487 l 9.728,-65.881 h 98.3 l 9.728,65.881 c 8.162,2.743 16.064,6.048 23.672,9.855 l 57.549,-43.509 69.352,69.665 -43.818,57.301 c 3.651,7.379 6.832,15.032 9.486,22.929 z"
             style="fill:none;stroke:#000000;stroke-width:30;stroke-linecap:round;stroke-linejoin:round;stroke-miterlimit:10;stroke-dasharray:none;stroke-opacity:1"
             id="path1885" /></g><g
           id="g1887"
           transform="translate(298.415,279.0439)"><path
             d="m 0,0 c 0,-23.425 -18.989,-42.416 -42.415,-42.416 -23.426,0 -42.415,18.991 -42.415,42.416 0,23.425 18.989,42.416 42.415,42.416 C -18.989,42.416 0,23.425 0,0 Z"
             style="fill:none;stroke:#000000;stroke-width:30;stroke-linecap:round;stroke-linejoin:round;stroke-miterlimit:10;stroke-dasharray:none;stroke-opacity:1"
             id="path1889" /></g><g
           id="g1891"
           transform="translate(332,156.1802)"><path
             d="m 0,0 v 4.44 c 0,41.99 -34.03,76.01 -76,76.01 -41.97,0 -76,-34.02 -76,-76.01 V 0"
             style="fill:none;stroke:#000000;stroke-width:30;stroke-linecap:round;stroke-linejoin:round;stroke-miterlimit:10;stroke-dasharray:none;stroke-opacity:1"
             id="path1893" /></g></g></g></g></svg>
