<?xml version="1.0" encoding="UTF-8" standalone="no"?>
<!-- Created with Inkscape (http://www.inkscape.org/) -->

<svg
   version="1.1"
   id="svg1869"
   xml:space="preserve"
   width="682.66669"
   height="682.66669"
   viewBox="0 0 682.66669 682.66669"
   xmlns="http://www.w3.org/2000/svg"
   xmlns:svg="http://www.w3.org/2000/svg"><defs
     id="defs1873"><clipPath
       clipPathUnits="userSpaceOnUse"
       id="clipPath1883"><path
         d="M 0,512 H 512 V 0 H 0 Z"
         id="path1881" /></clipPath></defs><g
     id="g1875"
     transform="matrix(1.3333333,0,0,-1.3333333,0,682.66667)"><g
       id="g1877"><g
         id="g1879"
         clip-path="url(#clipPath1883)"><g
           id="g1885"
           transform="translate(497,376.0356)"><path
             d="M 0,0 V -330 H -482 V 0"
             style="fill:none;stroke:#000000;stroke-width:30;stroke-linecap:round;stroke-linejoin:round;stroke-miterlimit:10;stroke-dasharray:none;stroke-opacity:1"
             id="path1887" /></g><g
           id="g1889"
           transform="translate(226,226.0356)"><path
             d="M 0,0 H -94.509 C -110.878,0 -211,-1.978 -211,150 c 0,16.568 13.432,30 30,30 h 422 c 16.568,0 30,-13.432 30,-30 C 271,-3.897 170.241,0 154.509,0 H 60"
             style="fill:none;stroke:#000000;stroke-width:30;stroke-linecap:round;stroke-linejoin:round;stroke-miterlimit:10;stroke-dasharray:none;stroke-opacity:1"
             id="path1891" /></g><path
           d="m 286,166.036 h -60 v 90 h 60 z"
           style="fill:none;stroke:#000000;stroke-width:30;stroke-linecap:round;stroke-linejoin:round;stroke-miterlimit:10;stroke-dasharray:none;stroke-opacity:1"
           id="path1893" /><g
           id="g1895"
           transform="translate(166,406.0356)"><path
             d="m 0,0 v 30 c 0,16.568 13.432,30 30,30 h 120 c 16.568,0 30,-13.432 30,-30 V 0"
             style="fill:none;stroke:#000000;stroke-width:30;stroke-linecap:round;stroke-linejoin:round;stroke-miterlimit:10;stroke-dasharray:none;stroke-opacity:1"
             id="path1897" /></g></g></g></g></svg>
