<?xml version="1.0" encoding="UTF-8" standalone="no"?>
<!-- Created with Inkscape (http://www.inkscape.org/) -->

<svg
   version="1.1"
   id="svg261"
   xml:space="preserve"
   width="682.66669"
   height="682.66669"
   viewBox="0 0 682.66669 682.66669"
   xmlns="http://www.w3.org/2000/svg"
   xmlns:svg="http://www.w3.org/2000/svg"><defs
     id="defs265"><clipPath
       clipPathUnits="userSpaceOnUse"
       id="clipPath275"><path
         d="M 0,512 H 512 V 0 H 0 Z"
         id="path273" /></clipPath><clipPath
       clipPathUnits="userSpaceOnUse"
       id="clipPath289"><path
         d="M 0,512 H 512 V 0 H 0 Z"
         id="path287" /></clipPath></defs><g
     id="g267"
     transform="matrix(1.3333333,0,0,-1.3333333,0,682.66667)"><g
       id="g269"><g
         id="g271"
         clip-path="url(#clipPath275)"><path
           d="m 301,15 h -90 v 60 h 90 z"
           style="fill:none;stroke:#000000;stroke-width:30;stroke-linecap:round;stroke-linejoin:round;stroke-miterlimit:10;stroke-dasharray:none;stroke-opacity:1"
           id="path277" /></g></g><g
       id="g279"
       transform="translate(211,75)"><path
         d="M 0,0 -60,91 45,302 150,91 90,0"
         style="fill:none;stroke:#000000;stroke-width:30;stroke-linecap:round;stroke-linejoin:round;stroke-miterlimit:10;stroke-dasharray:none;stroke-opacity:1"
         id="path281" /></g><g
       id="g283"><g
         id="g285"
         clip-path="url(#clipPath289)"><g
           id="g291"
           transform="translate(45,437)"><path
             d="M 0,0 C -16.568,0 -30,13.431 -30,30 -30,46.568 -16.568,60 0,60 16.568,60 30,46.569 30,30 30,13.432 16.568,0 0,0 Z"
             style="fill:none;stroke:#000000;stroke-width:30;stroke-linecap:round;stroke-linejoin:round;stroke-miterlimit:10;stroke-dasharray:none;stroke-opacity:1"
             id="path293" /></g><path
           d="m 286,437 h -60 v 60 h 60 z"
           style="fill:none;stroke:#000000;stroke-width:30;stroke-linecap:round;stroke-linejoin:round;stroke-miterlimit:10;stroke-dasharray:none;stroke-opacity:1"
           id="path295" /><g
           id="g297"
           transform="translate(467,437)"><path
             d="M 0,0 C -16.568,0 -30,13.431 -30,30 -30,46.568 -16.568,60 0,60 16.568,60 30,46.569 30,30 30,13.432 16.568,0 0,0 Z"
             style="fill:none;stroke:#000000;stroke-width:30;stroke-linecap:round;stroke-linejoin:round;stroke-miterlimit:10;stroke-dasharray:none;stroke-opacity:1"
             id="path299" /></g><g
           id="g301"
           transform="translate(256,377)"><path
             d="M 0,0 V -211"
             style="fill:none;stroke:#000000;stroke-width:30;stroke-linecap:round;stroke-linejoin:round;stroke-miterlimit:10;stroke-dasharray:none;stroke-opacity:1"
             id="path303" /></g><g
           id="g305"
           transform="translate(75,467)"><path
             d="M 0,0 H 151"
             style="fill:none;stroke:#000000;stroke-width:30;stroke-linecap:round;stroke-linejoin:round;stroke-miterlimit:10;stroke-dasharray:none;stroke-opacity:1"
             id="path307" /></g><g
           id="g309"
           transform="translate(286,467)"><path
             d="M 0,0 H 151"
             style="fill:none;stroke:#000000;stroke-width:30;stroke-linecap:round;stroke-linejoin:round;stroke-miterlimit:10;stroke-dasharray:none;stroke-opacity:1"
             id="path311" /></g><g
           id="g313"
           transform="translate(45,257.0002)"><path
             d="M 0,0 C 0,105.794 79.231,193.316 181,207.873"
             style="fill:none;stroke:#000000;stroke-width:30;stroke-linecap:round;stroke-linejoin:round;stroke-miterlimit:10;stroke-dasharray:none;stroke-opacity:1"
             id="path315" /></g><g
           id="g317"
           transform="translate(286,464.8734)"><path
             d="M 0,0 C 101.769,-14.557 181,-102.079 181,-207.873"
             style="fill:none;stroke:#000000;stroke-width:30;stroke-linecap:round;stroke-linejoin:round;stroke-miterlimit:10;stroke-dasharray:none;stroke-opacity:1"
             id="path319" /></g></g></g></g></svg>
