<svg version="1.1" id="Layer_1" xmlns="http://www.w3.org/2000/svg" xmlns:xlink="http://www.w3.org/1999/xlink" x="0px" y="0px" viewBox="0 0 512.269 512.269" style="enable-background:new 0 0 512.269 512.269;" xml:space="preserve">
<g>
	<g>
		<g>
			<path style="fill:none;stroke:#000000;stroke-width:30;stroke-linecap:round;stroke-linejoin:round;stroke-miterlimit:10;" d="&#10;&#9;&#9;&#9;&#9;M339.199,383.546H45.406c-16.569,0-30-13.431-30-30v-241.68c0-16.568,13.431-30,30-30h309.327c16.568,0,30,13.432,30,30v129.643"/>
			<path style="fill:none;stroke:#000000;stroke-width:30;stroke-linecap:round;stroke-linejoin:round;stroke-miterlimit:10;" d="&#10;&#9;&#9;&#9;&#9;M138.84,81.866V46.062C138.84,28.907,152.747,15,169.902,15h60.336c17.155,0,31.062,13.907,31.062,31.062v35.804"/>
		</g>
		<g>
			<path style="fill:none;stroke:#000000;stroke-width:30;stroke-linecap:round;stroke-linejoin:round;stroke-miterlimit:10;" d="&#10;&#9;&#9;&#9;&#9;M170.088,208.34h-19.602c-29.299,0-57.17-12.654-76.455-34.711L26.978,115.65"/>
			<path style="fill:none;stroke:#000000;stroke-width:30;stroke-linecap:round;stroke-linejoin:round;stroke-miterlimit:10;" d="&#10;&#9;&#9;&#9;&#9;M374.515,117.855l-45.814,56.111c-19.278,21.854-47.016,34.374-76.158,34.374h-20.72"/>
		</g>
		
			<rect x="170.07" y="178.358" transform="matrix(-1.836970e-16 1 -1 -1.836970e-16 408.4092 8.2699)" style="fill:none;stroke:#000000;stroke-width:30;stroke-linecap:round;stroke-linejoin:round;stroke-miterlimit:10;" width="60" height="59.962"/>
	</g>
	<g>
		<path style="fill:none;stroke:#000000;stroke-width:30;stroke-linecap:round;stroke-linejoin:round;stroke-miterlimit:10;" d="&#10;&#9;&#9;&#9;M279.97,497.27h216.893v-17.064c0-59.893-48.553-108.447-108.447-108.447h0c-59.893,0-108.447,48.553-108.447,108.447V497.27z"/>
		
			<ellipse transform="matrix(1 -0.001 0.001 1 -0.3111 0.4007)" style="fill:none;stroke:#000000;stroke-width:30;stroke-linecap:round;stroke-linejoin:round;stroke-miterlimit:10;" cx="388.416" cy="301.86" rx="60.491" ry="60.442"/>
	</g>
</g>
<g>
</g>
<g>
</g>
<g>
</g>
<g>
</g>
<g>
</g>
<g>
</g>
<g>
</g>
<g>
</g>
<g>
</g>
<g>
</g>
<g>
</g>
<g>
</g>
<g>
</g>
<g>
</g>
<g>
</g>
</svg>